<svg xmlns="http://www.w3.org/2000/svg" viewBox="0 0 128 128"><path fill="#F0D6BF" d="M105.7,84l-20.3,6.9l0,0c0.6-1,1-2.1,0.9-3.4c-0.2-2.8-2.7-4.9-5.6-4.9H66.2c-5.6-8.1-20.9-8.1-20.9-8.1H33.1V99l28.8,9c0,0,8.7,2.5,14.9,0c5.3-2.1,26.6-13.3,33.3-16.9c1.3-0.7,3.1-2.7,2.1-5l0,0C111.3,84.2,109.8,82.9,105.7,84z"></path><path fill="#454B54" d="M80.9,96.3H59.8c-1.7,0-3-1.3-3-3s1.3-3,3-3h21.2c1.3,0,2.4-1,2.4-2.3c0-1.7,1.3-3,3-3s3,1.3,3,3C89.3,92.6,85.6,96.3,80.9,96.3z"></path><path fill="#454B54" d="M70.1,112.1c-4.8,0-8.8-1.2-9.1-1.2l-28.8-9c-1.3-0.4-2.1-1.6-2.1-2.9V74.6c0-1.7,1.3-3,3-3h12.2c0.7,0,15.4,0.1,22.3,8.1h13.1c4.4,0,8.2,3.3,8.6,7.6c0.2,1.9-0.3,3.6-1.3,5.2c-0.7,1.1-2.1,1.7-3.4,1.3l0,0c-0.9-0.3-1.7-1-2-1.9s-0.2-1.9,0.3-2.7c0.2-0.3,0.4-0.8,0.4-1.5c-0.1-1.2-1.3-2.1-2.6-2.1H66.2c-1,0-1.9-0.5-2.5-1.3c-3.9-5.6-14.6-6.8-18.4-6.8h-9.2v19.2l26.7,8.3c0,0,7.7,2.2,12.9,0.1c5.2-2.1,26.6-13.4,33-16.8c0.1-0.1,0.9-0.7,0.7-1.1c-0.2-0.5-0.4-1-2.8-0.4L95,90.7c-1.6,0.5-3.3-0.3-3.8-1.9c-0.5-1.6,0.3-3.3,1.9-3.8l11.6-3.9c0,0,0.1,0,0.1,0c6.6-1.8,9.1,1.6,10,3.8c1.6,3.7-0.6,7.3-3.5,8.8c-8.3,4.4-28.3,14.9-33.5,17C75.4,111.7,72.6,112.1,70.1,112.1z"></path><path fill="#FFF" d="M30.1,103c1.7,0,3-1.3,3-3V73.9c0-1.7-1.4-3.1-3.2-3.1H15.6c-0.4,0,0,32.2,0,32.2H30.1z"></path><path fill="#454B54" d="M30.1,106H15.6c-1.7,0-3-1.3-3-3s1.3-3,3-3h14.5V73.9c0-0.1-0.1-0.1-0.2-0.1H15.6c-1.7,0-3-1.3-3-3s1.3-3,3-3h14.3c3.4,0,6.2,2.7,6.2,6.1V100C36.1,103.3,33.4,106,30.1,106z"></path><g><path fill="#F27788" d="M67.4,23.4c4.6,0,8.7,1.9,11.6,4.9c2.8-3,7-4.9,11.6-4.9c8.5,0,15.4,6.4,15.4,14.4c0,4.5-2.2,8.5-5.7,11.2l0,0L79,64.6L58.1,49.2l0,0c-3.7-2.6-6.1-6.8-6.1-11.4C52,29.8,58.9,23.4,67.4,23.4z"></path></g><g><path fill="#FFF" d="M62,40.8c-1.7,0-3-1.3-3-3c0-4.1,3.8-7.4,8.4-7.4c1.7,0,3,1.3,3,3s-1.3,3-3,3c-1.5,0-2.4,0.9-2.4,1.4C65,39.4,63.7,40.8,62,40.8z"></path></g></svg>